<svg width="24" height="20" viewBox="0 0 24 20" fill="none" xmlns="http://www.w3.org/2000/svg">
<path d="M16.185 17.368L13.764 14.9455C12.8278 15.2802 11.8157 15.3422 10.8456 15.1243C9.87554 14.9063 8.98729 14.4173 8.28423 13.7143C7.58117 13.0112 7.09221 12.123 6.87424 11.1529C6.65628 10.1828 6.71827 9.17074 7.053 8.2345L3.963 5.1445C1.407 7.417 0 10 0 10C0 10 4.5 18.25 12 18.25C13.4406 18.245 14.8649 17.9448 16.185 17.368ZM7.815 2.632C9.13508 2.05514 10.5594 1.75496 12 1.75C19.5 1.75 24 10 24 10C24 10 22.5915 12.5815 20.0385 14.857L16.9455 11.764C17.2802 10.8278 17.3422 9.81572 17.1243 8.84563C16.9063 7.87554 16.4173 6.98729 15.7143 6.28423C15.0112 5.58117 14.123 5.09221 13.1529 4.87424C12.1828 4.65628 11.1707 4.71827 10.2345 5.053L7.815 2.6335V2.632Z" fill="#737B86"/>
<path d="M8.28774 9.469C8.20523 10.0455 8.25811 10.6332 8.44218 11.1857C8.62626 11.7382 8.93648 12.2402 9.34826 12.652C9.76003 13.0638 10.2621 13.374 10.8145 13.5581C11.367 13.7421 11.9548 13.795 12.5312 13.7125L8.28624 9.469H8.28774ZM15.7127 10.531L11.4692 6.286C12.0457 6.20349 12.6335 6.25637 13.1859 6.44044C13.7384 6.62452 14.2404 6.93474 14.6522 7.34652C15.064 7.75829 15.3742 8.26031 15.5583 8.81279C15.7424 9.36527 15.7952 9.95303 15.7127 10.5295V10.531ZM20.4692 19.531L2.46924 1.531L3.53124 0.469L21.5312 18.469L20.4692 19.531Z" fill="#737B86"/>
</svg>
